<?xml version="1.0" encoding="utf-8"?>
<!-- Generator: Adobe Illustrator 25.0.0, SVG Export Plug-In . SVG Version: 6.00 Build 0)  -->
<svg version="1.1" id="Warstwa_1" xmlns="http://www.w3.org/2000/svg" xmlns:xlink="http://www.w3.org/1999/xlink" x="0px" y="0px"
	 viewBox="0 0 2039.12 874.21" style="enable-background:new 0 0 2039.12 874.21;" xml:space="preserve">
<style type="text/css">
	.st0{fill:#0C61A9;}
</style>
<g>
	<g>
		<g>
			<g>
				<path class="st0" d="M422.3,565.05c0.22-0.65,0.35-1.24,0.41-1.79c0.05-0.54,0.08-1,0.08-1.38c-0.06-0.43-0.14-0.8-0.24-1.09
					c-0.11-0.3-0.27-0.55-0.49-0.77c-0.22-0.16-0.49-0.31-0.81-0.45c-0.32-0.14-0.7-0.23-1.14-0.28c-0.49-0.11-0.99-0.19-1.5-0.24
					c-0.51-0.05-1.09-0.08-1.74-0.08l-1.46-0.16c-0.05,0.05-0.11,0.11-0.16,0.16c-0.05,0-0.11,0-0.16,0c-0.06,0-0.11,0-0.16,0
					c-0.06,0-0.11,0-0.16,0c-0.16,0-0.31,0-0.45,0c-0.14,0-0.28,0-0.45,0c-0.32,0.05-0.64,0.09-0.93,0.12
					c-0.3,0.03-0.58,0.07-0.85,0.12c-0.43,0.05-0.85,0.14-1.26,0.24c-0.4,0.11-0.82,0.22-1.26,0.32c-0.43,0.11-0.82,0.28-1.18,0.53
					c-0.35,0.24-0.66,0.53-0.93,0.85c-0.27,0.38-0.51,0.78-0.73,1.22c-0.22,0.43-0.41,0.95-0.57,1.54c-0.11,0.43-0.2,0.84-0.28,1.22
					c-0.08,0.38-0.12,0.7-0.12,0.97c0,0.32,0.03,0.61,0.08,0.85c0.05,0.24,0.13,0.47,0.24,0.69c0.11,0.22,0.26,0.4,0.45,0.57
					c0.19,0.16,0.42,0.3,0.69,0.41c0.27,0.11,0.57,0.2,0.89,0.28c0.33,0.08,0.7,0.12,1.14,0.12c0.21,0.05,0.42,0.1,0.61,0.12
					c0.19,0.03,0.39,0.04,0.61,0.04c0.21,0,0.43,0,0.65,0c0.21,0,0.43,0,0.65,0c0.05,0,0.12,0.01,0.2,0.04
					c0.08,0.03,0.15,0.04,0.2,0.04c0.11,0,0.23,0.01,0.37,0.04c0.13,0.03,0.28,0.04,0.45,0.04c0.21,0,0.43,0,0.65,0
					c0.21,0,0.43,0,0.65,0c0.05,0,0.11,0,0.16,0c0.05,0,0.11,0,0.16,0s0.11,0,0.16,0c0.05,0,0.09,0,0.12,0c0.03,0,0.07,0,0.12,0
					c1.35,0.05,2.66,0.15,3.94,0.28c1.27,0.14,2.5,0.31,3.69,0.53c1.14,0.22,2.26,0.46,3.37,0.73c1.11,0.27,2.18,0.57,3.2,0.89
					c1.03,0.38,1.87,0.93,2.51,1.66c0.65,0.73,1.11,1.64,1.38,2.72c0.27,1.14,0.35,2.43,0.24,3.89s-0.4,3.11-0.89,4.95
					c-0.06,0.11-0.1,0.22-0.12,0.32c-0.03,0.11-0.07,0.22-0.12,0.32c0,0.05,0,0.09,0,0.12c0,0.03,0,0.07,0,0.12
					c-0.05,0.05-0.08,0.1-0.08,0.12c0,0.03,0,0.07,0,0.12c-0.05,0.11-0.09,0.22-0.12,0.32c-0.03,0.11-0.04,0.22-0.04,0.32
					c0,0.05-0.03,0.14-0.08,0.24c-0.06,0.05-0.08,0.11-0.08,0.16c0,0.05,0,0.11,0,0.16c-0.06,0.11-0.1,0.22-0.12,0.32
					c-0.03,0.11-0.04,0.22-0.04,0.32c-0.06,0.05-0.1,0.12-0.12,0.2c-0.03,0.08-0.07,0.18-0.12,0.28c0,0.05-0.01,0.1-0.04,0.12
					c-0.03,0.03-0.04,0.07-0.04,0.12c-0.05,0.05-0.09,0.12-0.12,0.2c-0.03,0.08-0.04,0.15-0.04,0.2c0,0.05-0.03,0.14-0.08,0.24
					c0,0.05-0.01,0.11-0.04,0.16c-0.03,0.05-0.04,0.11-0.04,0.16c-0.16,0.43-0.33,0.85-0.49,1.26c-0.16,0.41-0.33,0.83-0.49,1.26
					c-0.11,0.22-0.22,0.42-0.32,0.61c-0.11,0.19-0.22,0.39-0.33,0.61c-0.11,0.22-0.22,0.42-0.32,0.61
					c-0.11,0.19-0.22,0.39-0.33,0.61c-0.22,0.38-0.47,0.77-0.77,1.18c-0.3,0.41-0.61,0.77-0.93,1.09c-0.32,0.33-0.65,0.64-0.97,0.93
					c-0.33,0.3-0.7,0.58-1.14,0.85c-0.54,0.38-1.07,0.72-1.58,1.01c-0.52,0.3-1.07,0.58-1.66,0.85c-0.32,0.16-0.69,0.31-1.09,0.45
					c-0.4,0.14-0.8,0.26-1.18,0.36c-0.16,0.06-0.34,0.11-0.53,0.16c-0.19,0.06-0.39,0.11-0.61,0.16c-0.54,0.11-1.1,0.2-1.66,0.28
					c-0.57,0.08-1.15,0.18-1.74,0.28c-0.38,0-0.76,0.01-1.14,0.04c-0.38,0.03-0.76,0.04-1.14,0.04c-0.22,0-0.4,0.01-0.57,0.04
					c-0.16,0.03-0.35,0.04-0.57,0.04c-0.05,0-0.12,0-0.2,0c-0.08,0-0.18,0-0.28,0c-0.05,0-0.13,0-0.24,0
					c-0.11,0-0.22,0.03-0.32,0.08c-0.06,0-0.12,0-0.2,0s-0.18,0-0.28,0c-0.06,0-0.12,0-0.2,0s-0.18,0-0.28,0c-0.05,0-0.12,0-0.2,0
					c-0.08,0-0.18,0-0.28,0c-0.05,0-0.12,0-0.2,0c-0.08,0-0.15,0-0.2,0c-0.06,0-0.12,0-0.2,0s-0.18,0-0.28,0c-0.06,0-0.12,0-0.2,0
					s-0.18,0-0.28,0l-3.57,0.08c-1.84-0.05-3.57-0.12-5.19-0.2c-1.62-0.08-3.14-0.2-4.54-0.37c-1.35-0.16-2.57-0.4-3.65-0.73
					c-1.08-0.33-2.06-0.68-2.92-1.06c-0.87-0.43-1.56-1.05-2.07-1.87c-0.51-0.81-0.82-1.87-0.93-3.16c-0.16-1.3-0.11-2.8,0.16-4.5
					c0.27-1.7,0.67-3.64,1.22-5.8l13.79-0.16c-0.11,0.54-0.2,1.04-0.28,1.5c-0.08,0.46-0.15,0.91-0.2,1.34
					c-0.05,0.38-0.05,0.76,0,1.14c0.05,0.38,0.13,0.7,0.24,0.97c0.11,0.27,0.26,0.52,0.45,0.73c0.19,0.22,0.47,0.41,0.85,0.57
					c0.32,0.16,0.72,0.27,1.18,0.32c0.46,0.05,0.96,0.08,1.5,0.08l6.33-0.16c0.05,0.05,0.11,0.08,0.16,0.08c0.05,0,0.11,0,0.16,0
					s0.09,0,0.12,0c0.03,0,0.07,0,0.12,0c0.05,0,0.11,0,0.16,0c0.38,0,0.74-0.01,1.09-0.04c0.35-0.03,0.69-0.07,1.01-0.12
					c0.27-0.05,0.5-0.11,0.69-0.16c0.19-0.05,0.39-0.11,0.61-0.16c0.11-0.05,0.22-0.09,0.33-0.12c0.11-0.03,0.21-0.07,0.32-0.12
					c0.38-0.11,0.72-0.3,1.02-0.57c0.3-0.27,0.58-0.59,0.85-0.97c0.27-0.43,0.51-0.89,0.73-1.38c0.22-0.49,0.41-1.03,0.57-1.62
					c0.16-0.59,0.27-1.11,0.33-1.54c0.05-0.43,0.03-0.84-0.08-1.22c-0.06-0.32-0.15-0.61-0.28-0.85c-0.13-0.24-0.34-0.42-0.61-0.53
					c-0.22-0.11-0.49-0.22-0.81-0.32c-0.33-0.11-0.68-0.19-1.06-0.24c-0.38-0.11-0.77-0.17-1.18-0.2c-0.4-0.03-0.82-0.07-1.26-0.12
					c-0.05,0-0.11,0-0.16,0s-0.11,0-0.16,0c-0.05,0-0.11,0-0.16,0h-0.08c-0.22,0-0.45,0-0.69,0c-0.24,0-0.47,0-0.69,0
					s-0.43-0.01-0.65-0.04c-0.22-0.03-0.43-0.07-0.65-0.12c-0.22,0-0.42,0-0.61,0c-0.19,0-0.39,0-0.61,0c-0.11,0-0.2,0-0.28,0
					c-0.08,0-0.18-0.03-0.28-0.08c-0.11,0-0.2-0.01-0.28-0.04c-0.08-0.03-0.18-0.04-0.28-0.04c-1.57-0.11-3.04-0.24-4.42-0.41
					c-1.38-0.16-2.64-0.35-3.77-0.57c-1.14-0.27-2.19-0.57-3.16-0.89c-0.97-0.32-1.87-0.68-2.68-1.05
					c-0.76-0.43-1.37-1.04-1.83-1.83c-0.46-0.78-0.74-1.77-0.85-2.96c-0.11-1.24-0.06-2.65,0.16-4.22c0.22-1.57,0.6-3.35,1.14-5.35
					c0.32-1.19,0.69-2.31,1.09-3.37c0.4-1.05,0.82-2.01,1.26-2.88c0.49-0.92,1.03-1.74,1.62-2.47c0.6-0.73,1.24-1.42,1.95-2.07
					c0.7-0.59,1.46-1.14,2.27-1.62c0.81-0.49,1.68-0.92,2.6-1.3c0.92-0.32,1.95-0.61,3.08-0.85c1.14-0.24,2.32-0.42,3.57-0.53
					c0.16,0,0.34,0,0.53,0c0.19,0,0.39-0.03,0.61-0.08c0.16,0,0.34,0,0.53,0c0.19,0,0.39,0,0.61,0c0.43,0,0.85-0.01,1.26-0.04
					c0.4-0.03,0.8-0.07,1.18-0.12c0.22,0,0.42,0,0.61,0c0.19,0,0.39,0,0.61,0c0.11,0,0.2,0,0.28,0s0.17-0.03,0.28-0.08
					c0.11,0,0.23,0,0.37,0c0.13,0,0.26,0,0.36,0s0.2,0,0.28,0s0.17-0.03,0.28-0.08c0.05,0,0.14,0,0.24,0c0.11,0,0.22,0,0.33,0
					c0.21,0,0.42,0,0.61,0c0.19,0,0.39,0,0.61,0c1.57,0,3.05,0.05,4.46,0.16c1.41,0.11,2.73,0.24,3.98,0.41
					c1.24,0.16,2.42,0.37,3.53,0.61c1.11,0.24,2.15,0.53,3.12,0.85c0.92,0.38,1.68,0.93,2.27,1.66c0.59,0.73,1,1.66,1.22,2.8
					c0.21,1.14,0.26,2.46,0.12,3.97c-0.14,1.52-0.45,3.22-0.93,5.11c-0.05,0.05-0.08,0.1-0.08,0.12c0,0.03,0,0.07,0,0.12v0.08
					c-0.05,0.05-0.08,0.11-0.08,0.16v0.08l-0.08,0.08c0,0.05,0,0.11,0,0.16c-0.05,0.05-0.09,0.1-0.12,0.12
					c-0.03,0.03-0.04,0.07-0.04,0.12c0,0.05,0,0.1,0,0.12c0,0.03-0.03,0.07-0.08,0.12c0,0.05,0,0.11,0,0.16
					c-0.06,0.05-0.08,0.11-0.08,0.16v0.08v-0.16H422.3z"/>
				<path class="st0" d="M470.41,573.33h-14.36l-4.06,15.33c0,0.05-0.03,0.11-0.08,0.16c0,0.05-0.03,0.11-0.08,0.16
					c0,0.05,0,0.11,0,0.16v0.08l-0.08,0.08c0,0.05,0,0.1,0,0.12c0,0.03,0.03,0.04,0.08,0.04v0.08c-0.06,0.05-0.08,0.11-0.08,0.16
					v0.08c-0.06,0.05-0.08,0.11-0.08,0.16c0,0.05,0,0.1,0,0.12c0,0.03-0.03,0.07-0.08,0.12c0,0.05,0,0.09,0,0.12
					c0,0.03,0,0.07,0,0.12c-0.05,0.22-0.11,0.43-0.16,0.65c-0.05,0.22-0.11,0.43-0.16,0.65c0,0.22,0.01,0.4,0.04,0.57
					c0.03,0.16,0.07,0.32,0.12,0.49c0.05,0.22,0.12,0.38,0.2,0.49c0.08,0.11,0.18,0.22,0.28,0.32c0.16,0.05,0.35,0.11,0.57,0.16
					c0.21,0.05,0.46,0.08,0.73,0.08c0.38,0,0.73-0.03,1.05-0.08c0.32-0.05,0.59-0.11,0.81-0.16c0.27-0.11,0.5-0.23,0.69-0.37
					c0.19-0.13,0.36-0.31,0.53-0.53c0.11-0.16,0.23-0.37,0.36-0.61c0.14-0.24,0.26-0.47,0.37-0.69c0.11-0.27,0.23-0.55,0.36-0.85
					c0.13-0.3,0.26-0.61,0.37-0.93c0.05-0.05,0.08-0.11,0.08-0.16c0-0.05,0-0.11,0-0.16c0.05-0.05,0.08-0.11,0.08-0.16
					c0-0.05,0-0.11,0-0.16c0.05-0.05,0.08-0.11,0.08-0.16c0.05-0.05,0.08-0.11,0.08-0.16c0-0.05,0-0.09,0-0.12c0-0.03,0-0.07,0-0.12
					c0.05-0.05,0.11-0.11,0.16-0.16c0-0.05,0-0.11,0-0.16c0-0.05,0.03-0.11,0.08-0.16c0-0.05,0-0.11,0-0.16
					c0-0.05,0.03-0.11,0.08-0.16c0-0.05,0.03-0.11,0.08-0.16c0-0.05,0-0.11,0-0.16c0-0.05,0.01-0.09,0.04-0.12
					c0.03-0.03,0.04-0.07,0.04-0.12c0-0.05,0-0.11,0-0.16l9.98-0.16c0,0.05-0.01,0.11-0.04,0.16c-0.03,0.05-0.04,0.11-0.04,0.16
					c0,0.05-0.01,0.1-0.04,0.12c-0.03,0.03-0.04,0.07-0.04,0.12c0,0.05-0.01,0.12-0.04,0.2s-0.07,0.18-0.12,0.28
					c0,0.05,0,0.1,0,0.12c0,0.03,0,0.07,0,0.12c-0.05,0.05-0.08,0.1-0.08,0.12c0,0.03,0.03,0.04,0.08,0.04c0,0.05,0,0.11,0,0.16
					l-0.08,0.08c0,0.05,0,0.11,0,0.16v0.08c-0.05,0.05-0.08,0.11-0.08,0.16v0.08l-0.08,0.08c0,0.05,0,0.14,0,0.24
					c-0.06,0.05-0.08,0.09-0.08,0.12c0,0.03,0,0.07,0,0.12v0.08c-0.06,0.05-0.08,0.11-0.08,0.16v0.08v0.08c0,0.05,0,0.14,0,0.24
					c-0.06,0.05-0.08,0.11-0.08,0.16c-0.32,1.19-0.69,2.27-1.09,3.25c-0.41,0.97-0.83,1.87-1.26,2.68
					c-0.49,0.81-1.02,1.54-1.58,2.19c-0.57,0.65-1.18,1.19-1.83,1.62s-1.38,0.81-2.19,1.14c-0.81,0.32-1.68,0.6-2.6,0.81
					c-0.97,0.22-2.03,0.36-3.16,0.45c-1.14,0.08-2.35,0.12-3.65,0.12c-1.08,0-2.1-0.04-3.04-0.12c-0.95-0.08-1.83-0.15-2.64-0.2
					c-0.87-0.16-1.65-0.36-2.35-0.61c-0.7-0.24-1.33-0.53-1.87-0.85c-0.6-0.32-1.08-0.76-1.46-1.3c-0.38-0.54-0.62-1.22-0.73-2.03
					c-0.11-0.81-0.11-1.73,0-2.76c0.11-1.03,0.32-2.16,0.65-3.41l4.79-17.93h-4.62l2.43-8.92h4.62l2.11-7.95h12.33l-2.11,7.95h14.36
					L470.41,573.33z"/>
				<path class="st0" d="M505.46,602.29h-12.17l2.27-7.22h-0.57c-0.38,0.7-0.8,1.37-1.26,1.99c-0.46,0.62-0.93,1.18-1.42,1.66
					c-0.49,0.49-0.99,0.93-1.5,1.34c-0.52,0.41-1.04,0.75-1.58,1.02c-0.27,0.16-0.55,0.3-0.85,0.4c-0.3,0.11-0.61,0.22-0.93,0.33
					c-0.33,0.11-0.64,0.2-0.93,0.28s-0.58,0.15-0.85,0.2c-0.6,0.05-1.23,0.12-1.91,0.2c-0.68,0.08-1.37,0.12-2.07,0.12
					c-1.03,0-1.99-0.05-2.88-0.16c-0.89-0.11-1.69-0.27-2.39-0.49c-0.76-0.27-1.41-0.58-1.95-0.93c-0.54-0.35-1.03-0.8-1.46-1.34
					c-0.38-0.54-0.68-1.14-0.89-1.78c-0.22-0.65-0.35-1.38-0.41-2.19c-0.05-0.76-0.03-1.61,0.08-2.56c0.11-0.95,0.3-1.93,0.57-2.96
					l6.98-25.8h12.33l-5.84,21.66c-0.11,0.54-0.22,1.03-0.32,1.46c-0.11,0.43-0.19,0.87-0.24,1.3c-0.05,0.38-0.07,0.77-0.04,1.18
					s0.07,0.77,0.12,1.1c0.05,0.38,0.16,0.7,0.33,0.97c0.16,0.27,0.4,0.49,0.73,0.65c0.27,0.16,0.64,0.28,1.1,0.37
					c0.46,0.08,0.96,0.12,1.5,0.12s1.06-0.03,1.54-0.08c0.49-0.05,0.94-0.16,1.38-0.32c0.43-0.16,0.85-0.36,1.26-0.61
					c0.4-0.24,0.8-0.53,1.18-0.85c0.38-0.27,0.72-0.59,1.01-0.97c0.3-0.38,0.58-0.76,0.85-1.14c0.05-0.11,0.11-0.22,0.16-0.32
					c0.05-0.11,0.11-0.22,0.16-0.32c0.16-0.32,0.31-0.68,0.45-1.05c0.14-0.38,0.26-0.76,0.36-1.14l0.57-2.11l5.36-19.88h12.33
					L505.46,602.29z"/>
				<path class="st0" d="M535.72,564.4l-1.87,6.9h0.49c0.38-0.59,0.77-1.15,1.18-1.66c0.4-0.51,0.82-1.01,1.26-1.5
					c0.43-0.43,0.9-0.84,1.42-1.22c0.51-0.38,1.04-0.7,1.58-0.97c0.49-0.27,1.02-0.51,1.58-0.73c0.57-0.22,1.15-0.41,1.74-0.57
					c0.6-0.11,1.19-0.2,1.78-0.28s1.24-0.12,1.95-0.12c0.97,0,1.89,0.05,2.76,0.16c0.86,0.11,1.68,0.27,2.43,0.49
					c0.76,0.22,1.45,0.47,2.07,0.77c0.62,0.3,1.18,0.66,1.66,1.09c0.49,0.43,0.88,0.95,1.18,1.54c0.3,0.6,0.5,1.27,0.61,2.03
					c0.11,0.7,0.11,1.52,0,2.43c-0.11,0.92-0.3,1.92-0.57,3l-7.06,26.53h-12.33l5.92-22.23c0.11-0.32,0.18-0.66,0.2-1.01
					c0.03-0.35,0.07-0.72,0.12-1.09c0-0.11,0-0.23,0-0.37s0-0.26,0-0.37c0-0.22,0.01-0.45,0.04-0.69c0.03-0.24,0.01-0.47-0.04-0.69
					c-0.06-0.32-0.15-0.61-0.28-0.85c-0.14-0.24-0.34-0.45-0.61-0.61c-0.27-0.16-0.58-0.3-0.93-0.41c-0.35-0.11-0.77-0.16-1.26-0.16
					c-0.54,0-1.07,0.04-1.58,0.12c-0.51,0.08-0.99,0.18-1.42,0.28c-0.49,0.16-0.93,0.32-1.34,0.49c-0.4,0.16-0.82,0.38-1.26,0.65
					c-0.38,0.22-0.73,0.49-1.05,0.81c-0.33,0.32-0.62,0.7-0.89,1.14c-0.27,0.38-0.51,0.81-0.73,1.3c-0.22,0.49-0.4,1.03-0.57,1.62
					l-5.84,22.07h-12.33l10.14-37.89H535.72z"/>
				<path class="st0" d="M593.81,602.29h-11.93l2.11-6.57h-0.4c-0.38,0.76-0.8,1.45-1.26,2.07c-0.46,0.62-0.91,1.18-1.34,1.66
					c-0.49,0.49-0.97,0.89-1.46,1.22c-0.49,0.32-1.03,0.6-1.62,0.81c-0.54,0.22-1.09,0.41-1.66,0.57c-0.57,0.16-1.15,0.24-1.74,0.24
					c-0.43,0.05-0.89,0.11-1.38,0.16c-0.49,0.05-0.97,0.11-1.46,0.16c-0.16,0-0.32,0-0.49,0s-0.33,0-0.49,0
					c-0.87,0-1.69-0.04-2.47-0.12c-0.79-0.08-1.56-0.18-2.31-0.28c-0.7-0.16-1.39-0.36-2.07-0.61c-0.68-0.24-1.31-0.55-1.91-0.93
					c-0.6-0.38-1.08-0.82-1.46-1.34c-0.38-0.51-0.7-1.1-0.97-1.75c-0.22-0.65-0.34-1.39-0.36-2.23c-0.03-0.84,0.07-1.77,0.28-2.8
					c0-0.22,0.01-0.43,0.04-0.65c0.03-0.22,0.07-0.43,0.12-0.65c0.05-0.11,0.09-0.23,0.12-0.37c0.03-0.13,0.07-0.26,0.12-0.36
					c0-0.11,0.01-0.23,0.04-0.37c0.03-0.14,0.07-0.26,0.12-0.37c0-0.22,0.03-0.43,0.08-0.65c0.05-0.22,0.11-0.43,0.16-0.65
					c0.05-0.11,0.09-0.23,0.12-0.37c0.03-0.13,0.07-0.26,0.12-0.37c0-0.11,0.01-0.23,0.04-0.37c0.03-0.13,0.07-0.26,0.12-0.37
					c0-0.16,0.01-0.31,0.04-0.45c0.03-0.14,0.07-0.26,0.12-0.37c0-0.11,0.01-0.2,0.04-0.28c0.03-0.08,0.04-0.15,0.04-0.2
					c0.05-0.11,0.09-0.23,0.12-0.36c0.03-0.13,0.07-0.26,0.12-0.37c0-0.11,0.01-0.23,0.04-0.37c0.03-0.14,0.07-0.26,0.12-0.37
					c0-0.11,0.01-0.22,0.04-0.32c0.03-0.11,0.07-0.22,0.12-0.32c0.05-0.11,0.09-0.22,0.12-0.32c0.03-0.11,0.04-0.22,0.04-0.32
					c0.05-0.11,0.09-0.23,0.12-0.37c0.03-0.13,0.07-0.26,0.12-0.37c0-0.11,0.01-0.23,0.04-0.37c0.03-0.13,0.07-0.26,0.12-0.37
					c0.38-1.35,0.77-2.64,1.18-3.85c0.41-1.22,0.88-2.34,1.42-3.37c0.49-1.08,1.02-2.07,1.58-2.96c0.57-0.89,1.18-1.72,1.83-2.47
					c0.65-0.76,1.42-1.43,2.31-2.03c0.89-0.59,1.85-1.08,2.88-1.46c1.08-0.38,2.26-0.66,3.53-0.85c1.27-0.19,2.66-0.28,4.18-0.28
					c0.59,0,1.16,0.03,1.7,0.08c0.54,0.05,1.06,0.14,1.54,0.24c0.49,0.05,0.94,0.16,1.38,0.32c0.43,0.16,0.84,0.32,1.22,0.49
					c0.43,0.22,0.81,0.46,1.14,0.73c0.32,0.27,0.59,0.62,0.81,1.05c0.21,0.38,0.42,0.8,0.61,1.26c0.19,0.46,0.31,0.99,0.36,1.58
					l0.49-0.16l5.76-21.58h12.33L593.81,602.29z M573.53,584.77c-0.16,0.7-0.31,1.37-0.45,1.99c-0.14,0.62-0.26,1.2-0.36,1.74
					c-0.06,0.54-0.1,1.03-0.12,1.46c-0.03,0.43-0.01,0.87,0.04,1.3c0,0.38,0.11,0.73,0.32,1.05c0.22,0.32,0.54,0.6,0.97,0.81
					c0.38,0.22,0.86,0.37,1.46,0.45s1.3,0.12,2.11,0.12c0.65,0,1.24-0.03,1.78-0.08c0.54-0.05,1.06-0.16,1.54-0.32
					c0.49-0.16,0.93-0.37,1.34-0.61c0.41-0.24,0.74-0.53,1.01-0.85c0.27-0.32,0.55-0.67,0.85-1.05c0.3-0.38,0.55-0.81,0.77-1.3
					c0.05-0.16,0.12-0.32,0.2-0.49c0.08-0.16,0.15-0.32,0.2-0.49c0.16-0.38,0.31-0.76,0.45-1.14c0.14-0.38,0.26-0.78,0.37-1.22
					c0-0.05,0-0.09,0-0.12c0-0.03,0.03-0.07,0.08-0.12c0-0.05,0-0.09,0-0.12c0-0.03,0-0.07,0-0.12c0.05-0.05,0.08-0.09,0.08-0.12
					c0-0.03,0-0.07,0-0.12c0.05-0.05,0.08-0.09,0.08-0.12c0-0.03,0-0.07,0-0.12v-0.08l0.08-0.08v-0.08v-0.08
					c0-0.05,0.03-0.11,0.08-0.16c-0.05-0.05-0.08-0.11-0.08-0.16c0-0.05,0.03-0.11,0.08-0.16c0-0.05,0-0.09,0-0.12
					c0-0.03,0.03-0.07,0.08-0.12c0-0.05,0-0.11,0-0.16c0-0.05,0.03-0.11,0.08-0.16c0-0.05,0-0.11,0-0.16c0-0.05,0.01-0.09,0.04-0.12
					c0.03-0.03,0.04-0.07,0.04-0.12c0-0.05,0-0.11,0-0.16c0.21-0.7,0.39-1.38,0.53-2.03c0.14-0.65,0.23-1.27,0.28-1.87
					c0.11-0.59,0.17-1.15,0.2-1.66c0.03-0.51,0.04-0.99,0.04-1.42c-0.05-0.43-0.22-0.82-0.49-1.18c-0.27-0.35-0.62-0.64-1.05-0.85
					c-0.38-0.22-0.91-0.38-1.58-0.49c-0.68-0.11-1.45-0.16-2.31-0.16c-0.7,0-1.35,0.05-1.95,0.16c-0.6,0.11-1.14,0.3-1.62,0.57
					c-0.49,0.22-0.91,0.51-1.26,0.89c-0.35,0.38-0.66,0.79-0.93,1.22c-0.11,0.22-0.23,0.46-0.37,0.73
					c-0.13,0.27-0.26,0.52-0.36,0.73c-0.11,0.27-0.22,0.53-0.33,0.77c-0.11,0.24-0.22,0.5-0.32,0.77c-0.22,0.54-0.41,1.07-0.57,1.58
					c-0.16,0.51-0.33,1.07-0.49,1.66l0.08-0.16L573.53,584.77z"/>
				<path class="st0" d="M640.14,589.63c-0.38,1.52-0.84,2.88-1.38,4.1c-0.54,1.22-1.11,2.29-1.7,3.2
					c-0.65,0.92-1.34,1.71-2.07,2.35c-0.73,0.65-1.53,1.14-2.39,1.46c-0.87,0.38-1.79,0.69-2.76,0.93c-0.97,0.24-2,0.45-3.08,0.61
					c-1.08,0.05-2.22,0.12-3.41,0.2c-1.19,0.08-2.43,0.12-3.73,0.12c-1.84,0-3.52-0.07-5.03-0.2c-1.52-0.13-2.87-0.34-4.06-0.61
					c-1.19-0.27-2.22-0.64-3.08-1.1c-0.87-0.46-1.57-1.01-2.11-1.66c-0.54-0.59-0.95-1.36-1.22-2.31c-0.27-0.95-0.38-2.04-0.33-3.29
					c-0.05-1.24,0.04-2.65,0.28-4.22c0.24-1.57,0.63-3.27,1.18-5.11c0.43-1.78,0.92-3.43,1.46-4.95c0.54-1.51,1.14-2.92,1.78-4.22
					c0.6-1.3,1.24-2.46,1.95-3.49c0.7-1.03,1.43-1.92,2.19-2.68c0.76-0.76,1.66-1.42,2.72-1.99c1.06-0.57,2.23-1.04,3.53-1.42
					c1.35-0.38,2.83-0.66,4.42-0.85c1.6-0.19,3.34-0.28,5.23-0.28c1.57,0,3.03,0.08,4.38,0.24c1.35,0.16,2.57,0.38,3.65,0.65
					c1.08,0.27,2.07,0.61,2.96,1.01c0.89,0.41,1.61,0.88,2.15,1.42c0.59,0.54,1.05,1.23,1.38,2.07c0.33,0.84,0.51,1.83,0.57,2.96
					c0.05,1.14-0.03,2.42-0.24,3.85c-0.22,1.43-0.54,3.02-0.97,4.75l-1.14,4.3h-24.26c-0.22,0.76-0.39,1.46-0.53,2.11
					c-0.14,0.65-0.26,1.24-0.37,1.78c-0.05,0.54-0.08,1.03-0.08,1.46c0,0.43,0.03,0.84,0.08,1.22c0.11,0.38,0.28,0.7,0.53,0.97
					c0.24,0.27,0.58,0.49,1.02,0.65c0.43,0.22,0.96,0.37,1.58,0.45c0.62,0.08,1.37,0.12,2.23,0.12c0.43,0,0.84-0.01,1.22-0.04
					c0.38-0.03,0.76-0.07,1.14-0.12c0.33-0.11,0.65-0.2,0.97-0.28c0.32-0.08,0.62-0.2,0.89-0.37c0.27-0.11,0.5-0.27,0.69-0.49
					c0.19-0.22,0.39-0.49,0.61-0.81c0.22-0.32,0.42-0.67,0.61-1.05c0.19-0.38,0.37-0.81,0.53-1.3v-0.16H640.14z M631.46,577.42
					c0.05-0.41,0.11-0.8,0.16-1.18c-0.05-0.38-0.12-0.73-0.2-1.05c-0.08-0.32-0.18-0.59-0.28-0.81c-0.22-0.22-0.45-0.41-0.69-0.57
					c-0.24-0.16-0.53-0.3-0.85-0.4c-0.32-0.11-0.7-0.2-1.14-0.28c-0.43-0.08-0.92-0.12-1.46-0.12l-0.57-0.16
					c-0.7,0.05-1.34,0.14-1.91,0.24c-0.57,0.11-1.07,0.22-1.5,0.32c-0.43,0.11-0.81,0.24-1.14,0.4c-0.32,0.16-0.62,0.38-0.89,0.65
					c-0.22,0.22-0.42,0.49-0.61,0.81c-0.19,0.32-0.39,0.68-0.61,1.05c-0.16,0.38-0.31,0.77-0.45,1.18
					c-0.14,0.41-0.26,0.85-0.36,1.34l12.25-0.16C631.32,578.25,631.4,577.83,631.46,577.42z"/>
				<path class="st0" d="M665.13,564.4l-1.87,6.9h0.49c0.38-0.59,0.77-1.15,1.18-1.66c0.41-0.51,0.82-1.01,1.26-1.5
					c0.43-0.43,0.9-0.84,1.42-1.22c0.51-0.38,1.04-0.7,1.58-0.97c0.49-0.27,1.02-0.51,1.58-0.73c0.57-0.22,1.15-0.41,1.74-0.57
					c0.6-0.11,1.19-0.2,1.78-0.28c0.6-0.08,1.24-0.12,1.95-0.12c0.97,0,1.89,0.05,2.76,0.16c0.86,0.11,1.68,0.27,2.43,0.49
					c0.76,0.22,1.45,0.47,2.07,0.77c0.62,0.3,1.18,0.66,1.66,1.09c0.49,0.43,0.88,0.95,1.18,1.54c0.3,0.6,0.5,1.27,0.61,2.03
					c0.11,0.7,0.11,1.52,0,2.43c-0.11,0.92-0.3,1.92-0.57,3l-7.06,26.53h-12.33l5.92-22.23c0.11-0.32,0.18-0.66,0.2-1.01
					c0.03-0.35,0.07-0.72,0.12-1.09c0-0.11,0-0.23,0-0.37s0-0.26,0-0.37c0-0.22,0.01-0.45,0.04-0.69c0.03-0.24,0.01-0.47-0.04-0.69
					c-0.06-0.32-0.15-0.61-0.28-0.85c-0.14-0.24-0.34-0.45-0.61-0.61c-0.27-0.16-0.58-0.3-0.93-0.41c-0.35-0.11-0.77-0.16-1.26-0.16
					c-0.54,0-1.07,0.04-1.58,0.12c-0.51,0.08-0.99,0.18-1.42,0.28c-0.49,0.16-0.93,0.32-1.34,0.49c-0.4,0.16-0.82,0.38-1.26,0.65
					c-0.38,0.22-0.73,0.49-1.05,0.81c-0.33,0.32-0.62,0.7-0.89,1.14c-0.27,0.38-0.51,0.81-0.73,1.3c-0.22,0.49-0.4,1.03-0.57,1.62
					l-5.84,22.07h-12.33l10.14-37.89H665.13z"/>
			</g>
		</g>
		<g>
			<g>
				<path class="st0" d="M493.85,540.07H332.39l12.3-46.43c1.64-5.95,3.43-11.38,5.38-16.3c1.95-4.92,4.25-9.32,6.92-13.22
					c2.46-3.89,5.23-7.27,8.3-10.15c3.07-2.87,6.46-5.23,10.15-7.08c3.48-1.84,7.17-3.54,11.07-5.07c3.89-1.53,7.99-3.02,12.3-4.46
					c4.1-1.43,8.51-2.77,13.22-4c4.71-1.23,9.53-2.25,14.46-3.08c0.41,0,0.82-0.05,1.23-0.15c0.41-0.1,0.92-0.26,1.54-0.46
					c0.41,0,0.87-0.05,1.38-0.15c0.51-0.1,0.97-0.26,1.38-0.46c0.41,0,0.87,0,1.38,0c0.51,0,0.97-0.1,1.38-0.3c0.2,0,0.46,0,0.77,0
					c0.31,0,0.56-0.1,0.77-0.31c0.2,0,0.46-0.05,0.77-0.15c0.31-0.1,0.56-0.15,0.77-0.15c0.41,0,0.87-0.05,1.38-0.15
					c0.51-0.1,1.08-0.25,1.69-0.46c0.41,0,0.87-0.05,1.38-0.15c0.51-0.1,0.97-0.26,1.38-0.46c0.41,0,0.87-0.05,1.38-0.15
					c0.51-0.1,1.08-0.25,1.69-0.46c0.41,0,0.87-0.05,1.38-0.15c0.51-0.1,0.97-0.26,1.38-0.46h0.31c0.2,0,0.41-0.1,0.61-0.31
					c0.2,0,0.41,0,0.61,0c0.41,0,0.72-0.1,0.92-0.3h0.31c0.2,0,0.41,0,0.62,0c2.05-0.41,3.95-0.93,5.69-1.54
					c1.74-0.62,3.33-1.23,4.77-1.85c1.43-0.61,2.71-1.28,3.84-2c1.12-0.72,2.1-1.49,2.92-2.31c1.02-0.82,1.89-1.85,2.61-3.08
					c0.71-1.23,1.48-2.56,2.31-4c0.61-1.64,1.23-3.38,1.85-5.23c0.61-1.84,1.23-3.89,1.84-6.15c0.82-2.66,1.38-5.07,1.69-7.23
					c0.31-2.15,0.25-3.95-0.15-5.38c-0.21-1.64-0.51-2.92-0.92-3.84c-0.41-0.92-1.13-1.58-2.15-2c-1.03-0.41-2.21-0.82-3.54-1.23
					c-1.34-0.41-2.82-0.72-4.46-0.93c-1.44-0.41-3.13-0.66-5.07-0.77c-1.95-0.1-4.05-0.15-6.3-0.15l-2.77-0.61
					c-3.28,0.21-6.15,0.51-8.61,0.92c-2.46,0.41-4.72,0.82-6.76,1.23c-2.05,0.41-3.8,0.92-5.23,1.54c-1.44,0.61-2.67,1.34-3.69,2.15
					c-1.03,0.82-2.05,2-3.07,3.54c-1.03,1.54-1.95,3.23-2.77,5.07c-0.82,1.85-1.59,4-2.31,6.46c-0.72,2.46-1.49,5.13-2.31,8
					c-0.2,0.21-0.36,0.41-0.46,0.61c-0.11,0.21-0.15,0.41-0.15,0.62c0,0.21-0.11,0.41-0.31,0.61c0,0.21-0.11,0.41-0.31,0.62
					c0,0.21,0,0.36,0,0.46c0,0.11,0,0.26,0,0.46c-0.21,0.21-0.31,0.36-0.31,0.46c0,0.11,0,0.26,0,0.46l-51.67-0.61
					c2.05-7.38,4.25-14.2,6.61-20.45c2.35-6.25,4.97-11.94,7.84-17.07c2.87-4.92,5.94-9.27,9.23-13.07
					c3.28-3.79,6.87-6.92,10.76-9.38c3.48-2.46,7.48-4.61,11.99-6.46c4.51-1.84,9.53-3.38,15.07-4.61
					c5.54-1.23,11.53-2.2,17.99-2.92c6.46-0.71,13.27-1.08,20.45-1.08c6.15,0,11.94,0.21,17.37,0.62c5.43,0.41,10.4,1.13,14.92,2.15
					c4.71,0.82,9.07,1.95,13.07,3.38c4,1.44,7.64,3.08,10.92,4.92c3.28,1.85,5.84,4.36,7.69,7.53c1.85,3.18,3.08,7.03,3.69,11.53
					c0.82,4.51,0.92,9.64,0.31,15.38c-0.61,5.74-1.95,12.2-4,19.38c-0.82,3.08-1.74,6-2.77,8.76c-1.03,2.77-2.05,5.59-3.07,8.46
					c-1.03,2.67-2.1,5.33-3.23,8c-1.13,2.67-2.31,5.23-3.54,7.69c-1.44,2.67-3.13,5.13-5.07,7.38c-1.95,2.26-4.05,4.31-6.3,6.15
					c-2.26,1.85-4.82,3.59-7.69,5.23c-2.87,1.64-6.05,3.18-9.53,4.62c-0.82,0.41-1.64,0.77-2.46,1.08
					c-0.82,0.31-1.64,0.67-2.46,1.08c-0.82,0.21-1.64,0.46-2.46,0.77c-0.82,0.31-1.64,0.67-2.46,1.08
					c-0.82,0.21-1.69,0.46-2.61,0.77c-0.92,0.31-1.8,0.57-2.61,0.77c-0.82,0.41-1.69,0.72-2.61,0.93c-0.92,0.2-1.8,0.41-2.61,0.61
					c-1.85,0.41-3.64,0.88-5.38,1.38c-1.74,0.52-3.43,0.97-5.07,1.38c-1.64,0.41-3.38,0.82-5.23,1.23
					c-1.85,0.41-3.69,0.82-5.54,1.23c-0.61,0.21-1.18,0.36-1.69,0.46c-0.51,0.11-0.98,0.26-1.38,0.46c-0.82,0.21-1.49,0.36-2,0.46
					c-0.51,0.11-0.97,0.15-1.38,0.15c-0.21,0-0.41,0.05-0.61,0.15c-0.21,0.11-0.41,0.26-0.62,0.46c-0.41,0-0.82,0.05-1.23,0.15
					c-0.41,0.11-0.82,0.15-1.23,0.15c-0.61,0.21-1.18,0.36-1.69,0.46c-0.51,0.11-0.98,0.15-1.38,0.15
					c-1.23,0.21-2.36,0.41-3.38,0.62c-1.03,0.21-2.05,0.41-3.07,0.62c-1.23,0.2-2.36,0.41-3.38,0.61c-1.03,0.21-2.05,0.41-3.08,0.62
					c-2.26,0.41-4.3,0.92-6.15,1.53c-1.84,0.62-3.59,1.23-5.23,1.85c-1.44,0.61-2.77,1.28-4,2c-1.23,0.72-2.26,1.49-3.07,2.31
					c-0.82,0.82-1.64,1.74-2.46,2.76c-0.82,1.03-1.64,2.26-2.46,3.69c-0.61,1.44-1.23,3.03-1.85,4.77s-1.23,3.64-1.84,5.69
					l110.1-0.61L493.85,540.07z"/>
				<path class="st0" d="M699.89,459.8h17.22l-10.45,39.36h-17.22l-10.76,40.9h-52.59l10.76-40.9H529.52l15.69-58.12l106.71-106.1
					h81.5L699.89,459.8z M669.44,377.38h-2.15l-84.26,82.42h64.27L669.44,377.38z"/>
			</g>
		</g>
		<g>
			<g>
				<path class="st0" d="M413.01,630.16c0.22-0.65,0.35-1.24,0.41-1.78c0.05-0.54,0.08-1,0.08-1.38c-0.06-0.43-0.14-0.8-0.24-1.1
					c-0.11-0.3-0.27-0.55-0.49-0.77c-0.22-0.16-0.49-0.31-0.81-0.45c-0.32-0.13-0.7-0.23-1.14-0.28c-0.49-0.11-0.99-0.19-1.5-0.24
					c-0.51-0.05-1.09-0.08-1.74-0.08l-1.46-0.16c-0.05,0.05-0.11,0.11-0.16,0.16c-0.05,0-0.11,0-0.16,0c-0.06,0-0.11,0-0.16,0
					c-0.06,0-0.11,0-0.16,0c-0.16,0-0.31,0-0.45,0c-0.14,0-0.28,0-0.45,0c-0.32,0.06-0.64,0.1-0.93,0.12
					c-0.3,0.03-0.58,0.07-0.85,0.12c-0.43,0.05-0.85,0.14-1.26,0.24c-0.4,0.11-0.82,0.22-1.26,0.33c-0.43,0.11-0.82,0.28-1.18,0.53
					c-0.35,0.24-0.66,0.53-0.93,0.85c-0.27,0.38-0.51,0.78-0.73,1.22c-0.22,0.43-0.41,0.95-0.57,1.54c-0.11,0.43-0.2,0.84-0.28,1.22
					c-0.08,0.38-0.12,0.7-0.12,0.97c0,0.33,0.03,0.61,0.08,0.85c0.05,0.24,0.14,0.47,0.24,0.69c0.11,0.22,0.26,0.4,0.45,0.57
					c0.19,0.16,0.42,0.3,0.69,0.4c0.27,0.11,0.57,0.2,0.89,0.28c0.33,0.08,0.7,0.12,1.14,0.12c0.21,0.05,0.42,0.09,0.61,0.12
					c0.19,0.03,0.39,0.04,0.61,0.04c0.21,0,0.43,0,0.65,0c0.21,0,0.43,0,0.65,0c0.05,0,0.12,0.01,0.2,0.04
					c0.08,0.03,0.15,0.04,0.2,0.04c0.11,0,0.23,0.01,0.37,0.04c0.13,0.03,0.28,0.04,0.45,0.04c0.21,0,0.43,0,0.65,0
					c0.21,0,0.43,0,0.65,0c0.05,0,0.11,0,0.16,0c0.05,0,0.11,0,0.16,0c0.05,0,0.11,0,0.16,0s0.09,0,0.12,0c0.03,0,0.07,0,0.12,0
					c1.35,0.06,2.66,0.15,3.94,0.28c1.27,0.14,2.5,0.31,3.69,0.53c1.14,0.22,2.26,0.46,3.37,0.73c1.11,0.27,2.18,0.57,3.2,0.89
					c1.03,0.38,1.87,0.93,2.51,1.66s1.11,1.64,1.38,2.72c0.27,1.14,0.35,2.43,0.24,3.89c-0.11,1.46-0.4,3.11-0.89,4.95
					c-0.06,0.11-0.1,0.22-0.12,0.32c-0.03,0.11-0.07,0.22-0.12,0.33c0,0.05,0,0.09,0,0.12c0,0.03,0,0.07,0,0.12
					c-0.05,0.06-0.08,0.1-0.08,0.12c0,0.03,0,0.07,0,0.12c-0.05,0.11-0.09,0.22-0.12,0.33c-0.03,0.11-0.04,0.22-0.04,0.32
					c0,0.06-0.03,0.13-0.08,0.24c-0.06,0.05-0.08,0.11-0.08,0.16c0,0.06,0,0.11,0,0.16c-0.06,0.11-0.1,0.22-0.12,0.33
					c-0.03,0.11-0.04,0.22-0.04,0.32c-0.06,0.06-0.1,0.12-0.12,0.2c-0.03,0.08-0.07,0.18-0.12,0.28c0,0.06-0.01,0.1-0.04,0.12
					c-0.03,0.03-0.04,0.07-0.04,0.12c-0.05,0.06-0.09,0.12-0.12,0.2c-0.03,0.08-0.04,0.15-0.04,0.2c0,0.06-0.03,0.14-0.08,0.24
					c0,0.06-0.01,0.11-0.04,0.16c-0.03,0.05-0.04,0.11-0.04,0.16c-0.16,0.43-0.33,0.85-0.49,1.26c-0.16,0.4-0.33,0.82-0.49,1.26
					c-0.11,0.22-0.22,0.42-0.32,0.61c-0.11,0.19-0.22,0.39-0.33,0.61s-0.22,0.42-0.32,0.61c-0.11,0.19-0.22,0.39-0.33,0.61
					c-0.22,0.38-0.47,0.77-0.77,1.18c-0.3,0.4-0.61,0.77-0.93,1.09c-0.32,0.33-0.65,0.64-0.97,0.93c-0.33,0.3-0.7,0.58-1.14,0.85
					c-0.54,0.38-1.07,0.72-1.58,1.01c-0.52,0.3-1.07,0.58-1.66,0.85c-0.32,0.16-0.69,0.31-1.09,0.45c-0.4,0.14-0.8,0.26-1.18,0.36
					c-0.16,0.06-0.34,0.11-0.53,0.16c-0.19,0.06-0.39,0.11-0.61,0.16c-0.54,0.11-1.1,0.2-1.66,0.28c-0.57,0.08-1.15,0.18-1.74,0.28
					c-0.38,0-0.76,0.01-1.14,0.04c-0.38,0.03-0.76,0.04-1.14,0.04c-0.22,0-0.4,0.01-0.57,0.04c-0.16,0.03-0.35,0.04-0.57,0.04
					c-0.05,0-0.12,0-0.2,0c-0.08,0-0.18,0-0.28,0c-0.05,0-0.14,0-0.24,0s-0.22,0.03-0.32,0.08c-0.06,0-0.12,0-0.2,0
					c-0.08,0-0.18,0-0.28,0c-0.06,0-0.12,0-0.2,0c-0.08,0-0.18,0-0.28,0c-0.05,0-0.12,0-0.2,0s-0.18,0-0.28,0c-0.05,0-0.12,0-0.2,0
					c-0.08,0-0.15,0-0.2,0c-0.06,0-0.12,0-0.2,0c-0.08,0-0.18,0-0.28,0c-0.06,0-0.12,0-0.2,0c-0.08,0-0.18,0-0.28,0l-3.57,0.08
					c-1.84-0.05-3.57-0.12-5.19-0.2c-1.62-0.08-3.14-0.2-4.54-0.37c-1.35-0.16-2.57-0.4-3.65-0.73c-1.08-0.33-2.06-0.68-2.92-1.06
					c-0.87-0.43-1.56-1.05-2.07-1.87c-0.51-0.81-0.82-1.87-0.93-3.16c-0.16-1.3-0.11-2.8,0.16-4.5c0.27-1.7,0.67-3.64,1.22-5.8
					l13.79-0.16c-0.11,0.54-0.2,1.04-0.28,1.5c-0.08,0.46-0.15,0.91-0.2,1.34c-0.05,0.38-0.05,0.76,0,1.14
					c0.05,0.38,0.13,0.7,0.24,0.97c0.11,0.27,0.26,0.51,0.45,0.73c0.19,0.22,0.47,0.41,0.85,0.57c0.32,0.16,0.72,0.27,1.18,0.32
					c0.46,0.05,0.96,0.08,1.5,0.08l6.33-0.16c0.05,0.06,0.11,0.08,0.16,0.08s0.11,0,0.16,0c0.05,0,0.09,0,0.12,0
					c0.03,0,0.07,0,0.12,0c0.05,0,0.11,0,0.16,0c0.38,0,0.74-0.01,1.09-0.04c0.35-0.03,0.69-0.07,1.01-0.12
					c0.27-0.05,0.5-0.11,0.69-0.16c0.19-0.05,0.39-0.11,0.61-0.16c0.11-0.05,0.22-0.09,0.33-0.12c0.11-0.03,0.21-0.07,0.32-0.12
					c0.38-0.11,0.72-0.3,1.02-0.57c0.3-0.27,0.58-0.59,0.85-0.97c0.27-0.43,0.51-0.89,0.73-1.38c0.22-0.49,0.41-1.03,0.57-1.62
					c0.16-0.59,0.27-1.11,0.33-1.54c0.05-0.43,0.03-0.84-0.08-1.22c-0.06-0.32-0.15-0.61-0.28-0.85c-0.14-0.24-0.34-0.42-0.61-0.53
					c-0.22-0.11-0.49-0.22-0.81-0.33c-0.33-0.11-0.68-0.19-1.06-0.24c-0.38-0.11-0.77-0.17-1.18-0.2c-0.4-0.03-0.82-0.07-1.26-0.12
					c-0.05,0-0.11,0-0.16,0c-0.05,0-0.11,0-0.16,0s-0.11,0-0.16,0h-0.08c-0.22,0-0.45,0-0.69,0s-0.47,0-0.69,0
					c-0.22,0-0.43-0.01-0.65-0.04c-0.22-0.03-0.43-0.07-0.65-0.12c-0.22,0-0.42,0-0.61,0c-0.19,0-0.39,0-0.61,0
					c-0.11,0-0.2,0-0.28,0s-0.18-0.03-0.28-0.08c-0.11,0-0.2-0.01-0.28-0.04c-0.08-0.03-0.18-0.04-0.28-0.04
					c-1.57-0.11-3.04-0.24-4.42-0.41c-1.38-0.16-2.64-0.35-3.77-0.57c-1.14-0.27-2.19-0.57-3.16-0.89
					c-0.97-0.32-1.87-0.67-2.68-1.05c-0.76-0.43-1.37-1.04-1.83-1.83c-0.46-0.78-0.74-1.77-0.85-2.96
					c-0.11-1.24-0.06-2.65,0.16-4.22c0.22-1.57,0.6-3.35,1.14-5.36c0.32-1.19,0.69-2.31,1.09-3.37c0.4-1.06,0.82-2.02,1.26-2.88
					c0.49-0.92,1.03-1.74,1.62-2.47c0.6-0.73,1.24-1.42,1.95-2.07c0.7-0.59,1.46-1.14,2.27-1.62c0.81-0.49,1.68-0.92,2.6-1.3
					c0.92-0.33,1.95-0.61,3.08-0.85c1.14-0.24,2.32-0.42,3.57-0.53c0.16,0,0.34,0,0.53,0c0.19,0,0.39-0.03,0.61-0.08
					c0.16,0,0.34,0,0.53,0c0.19,0,0.39,0,0.61,0c0.43,0,0.85-0.01,1.26-0.04c0.4-0.03,0.8-0.07,1.18-0.12c0.22,0,0.42,0,0.61,0
					c0.19,0,0.39,0,0.61,0c0.11,0,0.2,0,0.28,0c0.08,0,0.17-0.03,0.28-0.08c0.11,0,0.23,0,0.37,0c0.14,0,0.26,0,0.36,0s0.2,0,0.28,0
					c0.08,0,0.17-0.03,0.28-0.08c0.05,0,0.13,0,0.24,0c0.11,0,0.22,0,0.33,0c0.21,0,0.42,0,0.61,0c0.19,0,0.39,0,0.61,0
					c1.57,0,3.05,0.06,4.46,0.16c1.41,0.11,2.73,0.24,3.98,0.41c1.24,0.16,2.42,0.36,3.53,0.61c1.11,0.24,2.15,0.53,3.12,0.85
					c0.92,0.38,1.68,0.93,2.27,1.66c0.59,0.73,1,1.66,1.22,2.8c0.21,1.14,0.26,2.46,0.12,3.98c-0.14,1.51-0.45,3.22-0.93,5.11
					c-0.05,0.06-0.08,0.1-0.08,0.12c0,0.03,0,0.07,0,0.12v0.08c-0.05,0.05-0.08,0.11-0.08,0.16v0.08l-0.08,0.08
					c0,0.06,0,0.11,0,0.16c-0.05,0.05-0.09,0.09-0.12,0.12c-0.03,0.03-0.04,0.07-0.04,0.12c0,0.05,0,0.09,0,0.12
					c0,0.03-0.03,0.07-0.08,0.12c0,0.06,0,0.11,0,0.16c-0.06,0.05-0.08,0.11-0.08,0.16v0.08v-0.16H413.01z"/>
				<path class="st0" d="M463.64,654.75c-0.38,1.51-0.84,2.88-1.38,4.1c-0.54,1.22-1.11,2.29-1.7,3.2
					c-0.65,0.92-1.34,1.71-2.07,2.35c-0.73,0.65-1.53,1.14-2.39,1.46c-0.87,0.38-1.79,0.69-2.76,0.93c-0.97,0.24-2,0.45-3.08,0.61
					c-1.08,0.05-2.22,0.12-3.41,0.2c-1.19,0.08-2.43,0.12-3.73,0.12c-1.84,0-3.52-0.07-5.03-0.2c-1.52-0.14-2.87-0.34-4.06-0.61
					c-1.19-0.27-2.22-0.64-3.08-1.1c-0.87-0.46-1.57-1.01-2.11-1.66c-0.54-0.59-0.95-1.36-1.22-2.31c-0.27-0.95-0.38-2.04-0.33-3.29
					c-0.05-1.24,0.04-2.65,0.28-4.22c0.24-1.57,0.63-3.27,1.18-5.11c0.43-1.78,0.92-3.43,1.46-4.95c0.54-1.51,1.14-2.92,1.78-4.22
					c0.6-1.3,1.24-2.46,1.95-3.49c0.7-1.03,1.43-1.92,2.19-2.68c0.76-0.76,1.66-1.42,2.72-1.99c1.06-0.57,2.23-1.04,3.53-1.42
					c1.35-0.38,2.83-0.66,4.42-0.85c1.6-0.19,3.34-0.28,5.23-0.28c1.57,0,3.03,0.08,4.38,0.24c1.35,0.16,2.57,0.38,3.65,0.65
					c1.08,0.27,2.07,0.61,2.96,1.01s1.61,0.88,2.15,1.42c0.59,0.54,1.05,1.23,1.38,2.07c0.33,0.84,0.51,1.83,0.57,2.96
					c0.05,1.14-0.03,2.42-0.24,3.85c-0.22,1.43-0.54,3.02-0.97,4.75l-1.14,4.3h-24.26c-0.22,0.76-0.39,1.46-0.53,2.11
					c-0.14,0.65-0.26,1.24-0.37,1.78c-0.05,0.54-0.08,1.03-0.08,1.46s0.03,0.84,0.08,1.22c0.11,0.38,0.28,0.7,0.53,0.97
					c0.24,0.27,0.58,0.49,1.02,0.65c0.43,0.22,0.96,0.37,1.58,0.45s1.37,0.12,2.23,0.12c0.43,0,0.84-0.01,1.22-0.04
					c0.38-0.03,0.76-0.07,1.14-0.12c0.33-0.11,0.65-0.2,0.97-0.28c0.32-0.08,0.62-0.2,0.89-0.36c0.27-0.11,0.5-0.27,0.69-0.49
					c0.19-0.21,0.39-0.49,0.61-0.81c0.22-0.33,0.42-0.68,0.61-1.06c0.19-0.38,0.37-0.81,0.53-1.3v-0.16H463.64z M454.96,642.54
					c0.05-0.41,0.11-0.8,0.16-1.18c-0.05-0.38-0.12-0.73-0.2-1.05c-0.08-0.32-0.18-0.59-0.28-0.81c-0.22-0.21-0.45-0.4-0.69-0.57
					c-0.24-0.16-0.53-0.3-0.85-0.4c-0.32-0.11-0.7-0.2-1.14-0.28c-0.43-0.08-0.92-0.12-1.46-0.12l-0.57-0.16
					c-0.7,0.05-1.34,0.14-1.91,0.24c-0.57,0.11-1.07,0.22-1.5,0.33c-0.43,0.11-0.81,0.24-1.14,0.4c-0.32,0.16-0.62,0.38-0.89,0.65
					c-0.22,0.22-0.42,0.49-0.61,0.81c-0.19,0.32-0.39,0.68-0.61,1.05c-0.16,0.38-0.31,0.77-0.45,1.18
					c-0.13,0.41-0.26,0.85-0.36,1.34l12.25-0.16C454.82,643.36,454.9,642.94,454.96,642.54z"/>
				<path class="st0" d="M488.71,629.51l-1.7,5.6h0.57c0.38-0.43,0.76-0.85,1.14-1.26c0.38-0.4,0.76-0.8,1.14-1.18
					c0.43-0.38,0.85-0.73,1.26-1.05c0.4-0.33,0.8-0.6,1.18-0.81c0.43-0.27,0.86-0.49,1.3-0.65c0.43-0.16,0.92-0.3,1.46-0.41
					c0.49-0.11,1-0.2,1.54-0.28c0.54-0.08,1.11-0.12,1.7-0.12c1.14,0,2.15,0.09,3.04,0.28c0.89,0.19,1.63,0.45,2.23,0.77
					c0.6,0.33,1.06,0.75,1.38,1.26c0.33,0.52,0.51,1.12,0.57,1.83c0,0.7-0.01,1.41-0.04,2.11c-0.03,0.7-0.09,1.43-0.2,2.19
					c-0.06,0.76-0.15,1.54-0.28,2.35c-0.14,0.81-0.31,1.65-0.53,2.51c0,0.06,0,0.1,0,0.12c0,0.03-0.03,0.07-0.08,0.12
					c0,0.06,0,0.09,0,0.12c0,0.03,0,0.07,0,0.12c-0.05,0.05-0.08,0.11-0.08,0.16c0,0.06,0,0.11,0,0.16l-0.08,0.08
					c0,0.06,0,0.11,0,0.16c-0.05,0.05-0.08,0.11-0.08,0.16s0,0.11,0,0.16c0,0.06,0,0.11,0,0.16c0,0.05,0,0.09,0,0.12
					c0,0.03,0,0.07,0,0.12c-0.05,0.05-0.08,0.11-0.08,0.16c-0.06,0.06-0.08,0.11-0.08,0.16c0,0.06,0,0.11,0,0.16
					c-0.06,0.11-0.1,0.22-0.12,0.32c-0.03,0.11-0.04,0.22-0.04,0.33c-0.06,0.11-0.1,0.22-0.12,0.32c-0.03,0.11-0.04,0.22-0.04,0.33
					l-11.2-0.16v0.08c0-0.05,0.03-0.11,0.08-0.16l0.08-0.08c0-0.05,0-0.11,0-0.16c0-0.05,0.03-0.11,0.08-0.16v-0.08
					c0-0.05,0-0.09,0-0.12c0-0.03,0.03-0.07,0.08-0.12c0-0.05,0-0.11,0-0.16s0.03-0.11,0.08-0.16v-0.08c0-0.05,0.03-0.11,0.08-0.16
					c0-0.05,0-0.11,0-0.16c0-0.05,0.03-0.11,0.08-0.16c0-0.05,0-0.11,0-0.16c0-0.05,0.03-0.11,0.08-0.16c0-0.05,0-0.11,0-0.16
					s0.03-0.11,0.08-0.16c0-0.05,0-0.09,0-0.12c0-0.03,0.03-0.07,0.08-0.12c0-0.05,0-0.09,0-0.12c0-0.03,0-0.07,0-0.12
					c0.05-0.27,0.09-0.55,0.12-0.85c0.03-0.3,0.07-0.55,0.12-0.77c-0.06-0.27-0.08-0.53-0.08-0.77c0-0.24,0-0.47,0-0.69
					c-0.05-0.27-0.15-0.49-0.28-0.65c-0.14-0.16-0.28-0.3-0.45-0.4c-0.22-0.11-0.46-0.2-0.73-0.28c-0.27-0.08-0.6-0.12-0.97-0.12
					c-0.38,0-0.75,0.04-1.1,0.12c-0.35,0.08-0.66,0.18-0.93,0.28c-0.33,0.16-0.61,0.32-0.85,0.49c-0.24,0.16-0.47,0.38-0.69,0.65
					c-0.22,0.27-0.42,0.55-0.61,0.85c-0.19,0.3-0.36,0.58-0.53,0.85c-0.16,0.27-0.32,0.55-0.49,0.85c-0.16,0.3-0.3,0.58-0.41,0.85
					v0.08c-0.05,0.05-0.08,0.11-0.08,0.16s0,0.11,0,0.16l-0.08,0.08c0,0.06-0.03,0.11-0.08,0.16c0,0.05-0.03,0.11-0.08,0.16
					c0,0.05,0,0.09,0,0.12c0,0.03,0,0.07,0,0.12c-0.05,0.06-0.09,0.12-0.12,0.2s-0.04,0.18-0.04,0.28c0,0.05-0.01,0.09-0.04,0.12
					c-0.03,0.03-0.04,0.07-0.04,0.12c0,0.06-0.01,0.1-0.04,0.12c-0.03,0.03-0.04,0.07-0.04,0.12l-5.76,21.74h-12.33l10.14-37.89
					H488.71z"/>
				<path class="st0" d="M528.06,667.4h-19.55l-0.24-37.89h12.98l-1.14,29.7h0.41l14.12-29.7h12.82L528.06,667.4z"/>
				<path class="st0" d="M553.21,667.4h-12.33l10.14-37.89h12.33L553.21,667.4z M565.22,622.54h-12.33l2.43-9.25h12.33
					L565.22,622.54z"/>
				<path class="st0" d="M600.26,652.31c-0.38,1.46-0.8,2.8-1.26,4.02c-0.46,1.22-0.96,2.31-1.5,3.29c-0.38,0.76-0.81,1.47-1.3,2.15
					c-0.49,0.68-0.97,1.29-1.46,1.83c-0.11,0.11-0.23,0.23-0.36,0.36c-0.14,0.14-0.26,0.26-0.37,0.37c-0.7,0.6-1.49,1.12-2.35,1.58
					c-0.87,0.46-1.84,0.83-2.92,1.1c-1.08,0.22-2.26,0.39-3.53,0.53c-1.27,0.13-2.64,0.2-4.1,0.2c-1.73,0-3.35-0.05-4.87-0.16
					c-1.52-0.11-2.89-0.24-4.14-0.41c-1.19-0.21-2.3-0.5-3.33-0.85c-1.03-0.35-1.92-0.77-2.68-1.26c-0.76-0.49-1.37-1.16-1.83-2.03
					c-0.46-0.87-0.74-1.89-0.85-3.08c-0.11-1.24-0.06-2.65,0.16-4.22c0.22-1.57,0.6-3.35,1.14-5.36c0.43-1.73,0.92-3.35,1.46-4.87
					s1.11-2.92,1.71-4.22c0.59-1.3,1.24-2.5,1.95-3.61c0.7-1.11,1.41-2.1,2.11-2.96c0.76-0.92,1.66-1.7,2.72-2.35
					c1.05-0.65,2.26-1.19,3.61-1.62c1.35-0.43,2.83-0.77,4.42-1.02c1.59-0.24,3.34-0.36,5.23-0.36c1.41,0,2.74,0.06,4.01,0.16
					c1.27,0.11,2.45,0.24,3.53,0.4c1.08,0.22,2.08,0.46,3,0.73c0.92,0.27,1.73,0.6,2.43,0.97s1.27,0.91,1.7,1.58
					c0.43,0.68,0.7,1.53,0.81,2.56c0.11,1.03,0.09,2.22-0.04,3.57c-0.14,1.35-0.42,2.87-0.85,4.54l-11.85-0.16
					c0.11-0.33,0.18-0.65,0.2-0.97c0.03-0.32,0.04-0.62,0.04-0.89c0.05-0.05,0.08-0.13,0.08-0.24c0-0.11,0-0.19,0-0.24
					c0-0.32-0.04-0.62-0.12-0.89c-0.08-0.27-0.18-0.51-0.28-0.73c-0.16-0.16-0.36-0.33-0.61-0.49c-0.24-0.16-0.53-0.27-0.85-0.33
					c-0.38-0.11-0.77-0.19-1.18-0.24c-0.41-0.05-0.88-0.08-1.42-0.08c-0.7,0-1.38,0.05-2.03,0.16c-0.65,0.11-1.22,0.24-1.7,0.41
					c-0.49,0.16-0.91,0.36-1.26,0.61c-0.35,0.24-0.66,0.53-0.93,0.85c-0.22,0.32-0.45,0.7-0.69,1.14c-0.24,0.43-0.47,0.89-0.69,1.38
					c-0.22,0.49-0.43,1.03-0.65,1.62c-0.22,0.6-0.41,1.24-0.57,1.95l-1.05,3.98c-0.22,0.7-0.39,1.34-0.53,1.91
					c-0.14,0.57-0.23,1.09-0.28,1.58c-0.06,0.49-0.08,0.93-0.08,1.34c0,0.41,0.03,0.77,0.08,1.1c0.05,0.38,0.19,0.69,0.4,0.93
					c0.22,0.24,0.51,0.45,0.89,0.61c0.43,0.16,0.93,0.28,1.5,0.37c0.57,0.08,1.2,0.12,1.91,0.12c0.6,0,1.16-0.03,1.71-0.08
					c0.54-0.05,1.03-0.14,1.46-0.24c0.43-0.11,0.81-0.26,1.14-0.45c0.32-0.19,0.59-0.39,0.81-0.61c0.16-0.16,0.31-0.34,0.45-0.53
					c0.13-0.19,0.26-0.39,0.36-0.61c0.05-0.11,0.12-0.23,0.2-0.37c0.08-0.13,0.15-0.26,0.2-0.36c0.21-0.43,0.4-0.89,0.57-1.38
					c0.16-0.49,0.32-1,0.49-1.54v-0.16H600.26z"/>
				<path class="st0" d="M640.1,654.75c-0.38,1.51-0.84,2.88-1.38,4.1c-0.54,1.22-1.11,2.29-1.7,3.2c-0.65,0.92-1.34,1.71-2.07,2.35
					c-0.73,0.65-1.53,1.14-2.39,1.46c-0.87,0.38-1.79,0.69-2.76,0.93c-0.97,0.24-2,0.45-3.08,0.61c-1.08,0.05-2.22,0.12-3.41,0.2
					c-1.19,0.08-2.43,0.12-3.73,0.12c-1.84,0-3.52-0.07-5.03-0.2c-1.52-0.14-2.87-0.34-4.06-0.61c-1.19-0.27-2.22-0.64-3.08-1.1
					c-0.87-0.46-1.57-1.01-2.11-1.66c-0.54-0.59-0.95-1.36-1.22-2.31c-0.27-0.95-0.38-2.04-0.33-3.29
					c-0.05-1.24,0.04-2.65,0.28-4.22c0.24-1.57,0.63-3.27,1.18-5.11c0.43-1.78,0.92-3.43,1.46-4.95c0.54-1.51,1.14-2.92,1.78-4.22
					c0.6-1.3,1.24-2.46,1.95-3.49c0.7-1.03,1.43-1.92,2.19-2.68c0.76-0.76,1.66-1.42,2.72-1.99c1.06-0.57,2.23-1.04,3.53-1.42
					c1.35-0.38,2.83-0.66,4.42-0.85c1.6-0.19,3.34-0.28,5.23-0.28c1.57,0,3.03,0.08,4.38,0.24c1.35,0.16,2.57,0.38,3.65,0.65
					c1.08,0.27,2.07,0.61,2.96,1.01s1.61,0.88,2.15,1.42c0.59,0.54,1.05,1.23,1.38,2.07c0.33,0.84,0.51,1.83,0.57,2.96
					c0.05,1.14-0.03,2.42-0.24,3.85c-0.22,1.43-0.54,3.02-0.97,4.75l-1.14,4.3h-24.26c-0.22,0.76-0.39,1.46-0.53,2.11
					c-0.14,0.65-0.26,1.24-0.37,1.78c-0.05,0.54-0.08,1.03-0.08,1.46s0.03,0.84,0.08,1.22c0.11,0.38,0.28,0.7,0.53,0.97
					c0.24,0.27,0.58,0.49,1.02,0.65c0.43,0.22,0.96,0.37,1.58,0.45s1.37,0.12,2.23,0.12c0.43,0,0.84-0.01,1.22-0.04
					c0.38-0.03,0.76-0.07,1.14-0.12c0.33-0.11,0.65-0.2,0.97-0.28c0.32-0.08,0.62-0.2,0.89-0.36c0.27-0.11,0.5-0.27,0.69-0.49
					c0.19-0.21,0.39-0.49,0.61-0.81c0.22-0.33,0.42-0.68,0.61-1.06c0.19-0.38,0.37-0.81,0.53-1.3v-0.16H640.1z M631.42,642.54
					c0.05-0.41,0.11-0.8,0.16-1.18c-0.05-0.38-0.12-0.73-0.2-1.05c-0.08-0.32-0.18-0.59-0.28-0.81c-0.22-0.21-0.45-0.4-0.69-0.57
					c-0.24-0.16-0.53-0.3-0.85-0.4c-0.32-0.11-0.7-0.2-1.14-0.28c-0.43-0.08-0.92-0.12-1.46-0.12l-0.57-0.16
					c-0.7,0.05-1.34,0.14-1.91,0.24c-0.57,0.11-1.07,0.22-1.5,0.33c-0.43,0.11-0.81,0.24-1.14,0.4c-0.32,0.16-0.62,0.38-0.89,0.65
					c-0.22,0.22-0.42,0.49-0.61,0.81c-0.19,0.32-0.39,0.68-0.61,1.05c-0.16,0.38-0.31,0.77-0.45,1.18
					c-0.13,0.41-0.26,0.85-0.36,1.34l12.25-0.16C631.28,643.36,631.36,642.94,631.42,642.54z"/>
			</g>
		</g>
		<path class="st0" d="M790.9,469.03c-0.71,30.09-6.42,59.74-16.11,87.73c-19.63,55.95-56.49,104.96-104.15,138.13
			c-23.79,16.59-50.03,29.48-77.66,37.84c-27.59,8.4-56.37,12.32-84.96,11.62c-57.2-1.37-113.36-21.59-157.92-56.32
			c-44.78-34.57-77.2-83.57-92.33-137.4c-7.58-26.89-10.81-54.85-9.55-82.57c1.28-27.71,7.04-55.16,16.92-80.97
			c9.9-25.8,23.86-49.99,41.23-71.29c17.23-21.41,37.88-39.96,60.92-54.73c23-14.79,48.43-25.87,74.9-32.7
			c17.36-4.46,35.12-7.16,52.96-8.03l-3.53,62.16l170.84-86.12L502.47,91.47l-3.7,65.03c-24.69,0.91-49.26,4.62-72.98,11.31
			c-32.67,9.13-63.85,23.45-92.01,42.34c-28.18,18.86-53.22,42.29-73.88,69.02c-20.63,26.76-36.76,56.82-47.89,88.55
			c-11.1,31.74-17.1,65.21-17.67,98.73c-0.55,33.52,4.35,67.06,14.33,98.86c9.97,31.76,24.9,62.01,44.41,88.93
			c19.43,26.97,43.23,50.65,70.03,69.95c26.78,19.36,56.63,34.22,87.93,44.17c31.34,9.85,64.19,14.64,96.87,14.09
			c65.42-1.03,129.7-23.54,180.79-63.08c25.48-19.78,47.77-43.55,65.37-70.29c17.64-26.69,30.92-56.1,38.94-86.74
			c8.12-30.6,11.06-62.39,8.77-93.56c-2.36-31.16-9.81-61.71-22.2-89.82C787.82,408.53,791.79,438.95,790.9,469.03z"/>
	</g>
	<path class="st0" d="M1051.55,361.85l-34.17,61.05c-4.98,8.14-11.17,12.21-18.56,12.21c-7.39,0-13.57-4.3-18.55-12.89l-34.71-60.37
		v96.1h-37.11v-161h36.58l53.67,92.93l53.4-92.93h36.58v161h-37.11V361.85z"/>
	<path class="st0" d="M1235.52,401.02h-87.48c0,11.84,2.14,20.49,6.44,25.96c4.29,5.47,12.91,8.2,25.88,8.2
		c8.41,0,14.62-2.31,18.65-6.95c4.03-4.63,6.04-9.07,6.04-13.32h30.74c0,16.25-5.04,28.16-15.1,35.75
		c-10.07,7.59-23.38,11.39-39.93,11.39c-16.55,0-29.38-2.05-38.49-6.15c-18.74-8.35-28.11-30.51-28.11-66.5
		c0-21.41,5.34-37.08,16.03-47.02c10.68-9.94,26.97-14.92,48.87-14.92c38,0,57.01,18.3,57.01,54.88
		C1236.05,386.3,1235.87,392.52,1235.52,401.02z M1148.83,380.76h56.22c0-10.02-2.19-17.31-6.57-21.86
		c-4.38-4.55-11.08-6.83-20.1-6.83c-9.02,0-16.2,2.32-21.54,6.95C1151.5,363.64,1148.83,370.89,1148.83,380.76z"/>
	<path class="st0" d="M1283.07,279.42c8.23,0,13.57,1.1,16.03,3.3c2.45,2.2,3.68,6.83,3.68,13.89c0,7.06-1.27,11.69-3.81,13.89
		c-2.54,2.2-7.88,3.3-16.03,3.3c-8.14,0-13.49-1.14-16.02-3.42c-2.54-2.28-3.81-6.91-3.81-13.89c0-6.98,1.27-11.57,3.81-13.78
		C1269.45,280.52,1274.84,279.42,1283.07,279.42z M1299.88,459.09h-34.15V333.84h34.15V459.09z"/>
	<path class="st0" d="M1439.65,423.11v3.42c-1.05,11.39-6.61,19.97-16.68,25.73c-10.07,5.77-22.64,8.65-37.7,8.65
		c-22.24,0-37.83-3.49-46.76-10.47c-8.23-6.38-12.35-15.79-12.35-28.24v-2.73h31c0,6.98,2.1,11.77,6.31,14.34
		c4.2,2.58,11.47,3.87,21.8,3.87c14.01,0,21.02-4.4,21.02-13.21c0-7.29-2.45-12.14-7.36-14.57c-2.28-1.21-5.17-2.12-8.67-2.73
		l-26.53-3.87c-23.12-3.19-34.68-15.71-34.68-37.58c0-12.14,5.12-21.6,15.37-28.35c10.25-6.75,23.25-10.13,39.01-10.13
		c35.9,0,53.86,13.43,53.86,40.31v2.96h-29.69c-0.35-7.14-2.54-11.99-6.57-14.58c-4.03-2.58-9.68-3.87-16.95-3.87
		c-7.27,0-12.74,1.25-16.42,3.76c-3.68,2.51-5.52,5.28-5.52,8.31c0,8.65,4.03,13.59,12.08,14.8l31.79,5.01
		C1428.44,387.59,1439.65,400.64,1439.65,423.11z"/>
	<path class="st0" d="M1531.07,459.09h-21.28c-12.97,0-22.82-3.34-29.56-10.02c-6.74-6.68-10.12-14.65-10.12-23.91v-68.32h-14.45
		V334.3h14.45v-25.5h34.15v25.5h24.17v22.54h-24.17v66.5c0,7.14,3.94,10.7,11.82,10.7h14.97V459.09z"/>
	<path class="st0" d="M1670.57,401.02h-87.48c0,11.84,2.14,20.49,6.44,25.96c4.29,5.47,12.91,8.2,25.88,8.2
		c8.41,0,14.62-2.31,18.65-6.95c4.03-4.63,6.04-9.07,6.04-13.32h30.74c0,16.25-5.04,28.16-15.1,35.75
		c-10.07,7.59-23.38,11.39-39.93,11.39c-16.55,0-29.38-2.05-38.49-6.15c-18.74-8.35-28.11-30.51-28.11-66.5
		c0-21.41,5.34-37.08,16.03-47.02c10.68-9.94,26.97-14.92,48.87-14.92c38,0,57.01,18.3,57.01,54.88
		C1671.09,386.3,1670.92,392.52,1670.57,401.02z M1583.87,380.76h56.22c0-10.02-2.19-17.31-6.57-21.86
		c-4.38-4.55-11.08-6.83-20.1-6.83c-9.02,0-16.2,2.32-21.54,6.95C1586.54,363.64,1583.87,370.89,1583.87,380.76z"/>
	<path class="st0" d="M1780.38,329.52l-9.46,29.15c-2.63-0.91-5.61-1.37-8.93-1.37c-8.76,0-19.53,3.27-32.31,9.79v92h-34.15V329.06
		h25.48l7.88,11.38l36.25-12.98c1.75-0.15,4.11-0.23,7.09-0.23C1775.21,327.24,1777.93,328,1780.38,329.52z"/>
	<path class="st0" d="M1051.36,489.79v106.57c0,17.61-6.88,31.5-20.62,41.67c-13.75,10.17-30.7,15.26-50.83,15.26
		c-20.14,0-37.09-5.08-50.84-15.26c-13.75-10.17-20.62-24.06-20.62-41.67V489.79h36.52v105.44c0,10.02,3.19,17.5,9.59,22.43
		c6.39,4.93,14.84,7.4,25.35,7.4c10.51,0,19-2.47,25.48-7.4c6.48-4.93,9.72-12.41,9.72-22.43V489.79H1051.36z"/>
	<path class="st0" d="M1278.87,651.93h-34.15v-80.84c0-8.05-1.09-13.66-3.28-16.85c-2.19-3.19-6-4.78-11.43-4.78l-30.74,11.16v91.32
		h-34.15v-80.84c0-14.42-5.78-21.63-17.34-21.63l-28.11,11.16v91.32h-34.15V521.9H1111l7.88,15.49l39.41-16.85
		c13.66,0,23.99,5.77,31,17.31l48.87-17.31c13.66,0,23.86,3.99,30.6,11.95c6.74,7.97,10.12,18.71,10.12,32.22V651.93z"/>
	<path class="st0" d="M1409.18,651.93h-81.7c-8.93,0-15.81-1.63-20.62-4.9c-4.82-3.26-7.22-7.86-7.22-13.78
		c0-5.92,2.89-12.14,8.67-18.67l62.53-67.18h-62.53V521.9h103.51v22.54l-74.61,81.98h71.98V651.93z"/>
	<path class="st0" d="M1550.78,651.93h-25.48l-7.88-15.49l-42.03,16.85c-11.74,0-21.94-3.76-30.61-11.27
		c-8.67-7.51-13-18.48-13-32.91V521.9h34.15v80.84c0,14.42,6.65,21.63,19.96,21.63l30.74-14.35V521.9h34.15V651.93z"/>
	<path class="st0" d="M1661.38,522.81l34.15-1.82v125.02c0,14.42-4.69,25.47-14.06,33.13c-9.37,7.66-23.25,11.5-41.64,11.5
		c-14.19,0-26.62-2.43-37.3-7.29c-5.61-2.43-10.07-6.07-13.4-10.93c-3.33-4.86-4.99-10.63-4.99-17.31l31.79-1.37
		c0,4.25,1.75,7.29,5.25,9.11c3.5,1.82,9.5,2.73,18,2.73c8.49,0,14.27-1.82,17.34-5.47c3.06-3.64,4.6-8.88,4.6-15.71l1.31-19.58
		l-36.78,17.08c-20.14,0-33.72-5.92-40.72-17.76c-6.31-10.48-9.46-23.3-9.46-38.49c0-18.06,1.57-30.82,4.73-38.26
		c3.33-8.2,8.05-14.12,14.19-17.76c7.88-4.56,18.21-6.83,31-6.83H1661.38z M1661.38,599.1v-49.65h-26.01
		c-9.81,0-16.55,2.89-20.23,8.65c-3.68,5.77-5.52,13.82-5.52,24.14c0,10.33,1.88,17.65,5.65,21.98c3.76,4.33,10.46,6.49,20.1,6.49
		L1661.38,599.1z"/>
	<path class="st0" d="M1844.75,593.86h-87.48c0,11.84,2.14,20.49,6.44,25.96c4.29,5.47,12.91,8.2,25.88,8.2
		c8.41,0,14.62-2.31,18.65-6.95c4.03-4.63,6.04-9.07,6.04-13.32h30.74c0,16.25-5.04,28.16-15.1,35.75
		c-10.07,7.59-23.38,11.39-39.93,11.39c-16.55,0-29.38-2.05-38.49-6.15c-18.74-8.35-28.11-30.51-28.11-66.5
		c0-21.41,5.34-37.08,16.03-47.02c10.68-9.94,26.97-14.92,48.87-14.92c38,0,57.01,18.3,57.01,54.88
		C1845.28,579.14,1845.1,585.36,1844.75,593.86z M1758.06,573.6h56.22c0-10.02-2.19-17.31-6.57-21.86
		c-4.38-4.55-11.08-6.83-20.1-6.83c-9.02,0-16.2,2.32-21.54,6.95C1760.73,556.48,1758.06,563.73,1758.06,573.6z"/>
	<g>
		<g>
			<circle class="st0" cx="1463.58" cy="485.03" r="14.05"/>
			<circle class="st0" cx="1518.97" cy="485.03" r="14.05"/>
		</g>
	</g>
</g>
</svg>
